# xmcd CD database file
#
# Track frame offsets:
#	150
#	21376
#	38658
#	53449
#	74443
#	91934
#	108253
#	124828
#	141465
#	159363
#	182861
#	195697
#
# Disc length: 2838 seconds
#
# Revision: 0
# Processed by: cddbd v1.5.2PL0 Copyright (c) Steve Scherf et al.
# Submitted via: CDex 1.51
#
DISCID=a30b140c
DTITLE=Parademarche - Hlavne, kdyz se kouri z hlavne
DYEAR=2000
DGENRE=Country
TTITLE0=Nymfomanka
TTITLE1=Pojd sem kamo
TTITLE2=Kleptoman
TTITLE3=Ztracim dech
TTITLE4=Stroj
TTITLE5=Zarlivec
TTITLE6=Praminek vlasu
TTITLE7=Gaucing
TTITLE8=Zly myslenky
TTITLE9=Fur Paul Mc Sirsch
TTITLE10=Z flamu domu
TTITLE11=Bez toho ...
EXTD=YEAR: 2000
EXTT0=
EXTT1=
EXTT2=
EXTT3=
EXTT4=
EXTT5=
EXTT6=
EXTT7=
EXTT8=
EXTT9=
EXTT10=
EXTT11=
PLAYORDER=
